<?xml version="1.0" encoding="UTF-8" standalone="no"?>
<svg viewBox="-5 -5 210 130">

    <g fill="none"
        stroke="#ffffff"
        stroke-width="7"
        stroke-linecap="round"
        stroke-linejoin="round">

        <!-- Outline -->
        <path d="M0,30 L0,90 L100,60 L200,90 L200,30 L100,0 L0,30 L0,90 L0,30 M200,30 L200,90 L200,30 M100,0 L100,60 L100,0 M0,90 L100,60 L200,90 L100,120 L0,90 M0,60 L100,30 L200,60 L100,90 L0,60 M0,30 L100,0 L200,30 L100,60 L0,30 M100,60 L100,120 L100,60"/>

        <!-- Fill: center -->
        <path d="M0,60 L100,30 L200,60 L100,90 L0,60"
            fill="#ffffff"
            opacity="0.5" />

        <!-- Fill: top -->
        <path d="M0,30 L100,0 L200,30 L100,60 L0,30"
            fill="#ffffff"
            opacity="0.75" />

    </g>
</svg>
